<svg xmlns="http://www.w3.org/2000/svg" viewBox="0 0 512 512" width="512" height="512" role="img" aria-label="会食ナビ アイコン案3 乾杯">
  <defs>
    <linearGradient id="g3gold" x1="0" y1="0" x2="1" y2="1">
      <stop offset="0" stop-color="#e6c987"/>
      <stop offset="1" stop-color="#b98f3f"/>
    </linearGradient>
  </defs>
  <rect width="512" height="512" rx="112" fill="#f0e4cb"/>
  <rect x="14" y="14" width="484" height="484" rx="99" fill="none" stroke="#b98f3f" stroke-opacity="0.28" stroke-width="2"/>
  <!-- 乾杯のきらめき -->
  <g stroke="#b98f3f" stroke-width="9" stroke-linecap="round">
    <line x1="256" y1="150" x2="256" y2="120"/>
    <line x1="300" y1="168" x2="322" y2="146"/>
    <line x1="212" y1="168" x2="190" y2="146"/>
  </g>
  <!-- 左の盃 -->
  <g transform="translate(196,262) rotate(18)">
    <path d="M-58 0 L58 0 L34 104 Q0 120 -34 104 Z" fill="url(#g3gold)" stroke="#17253f" stroke-width="7" stroke-linejoin="round"/>
    <ellipse cx="0" cy="0" rx="58" ry="13" fill="#17253f"/>
    <ellipse cx="0" cy="-1" rx="46" ry="9" fill="#efd8a0"/>
  </g>
  <!-- 右の盃 -->
  <g transform="translate(316,262) rotate(-18)">
    <path d="M-58 0 L58 0 L34 104 Q0 120 -34 104 Z" fill="url(#g3gold)" stroke="#17253f" stroke-width="7" stroke-linejoin="round"/>
    <ellipse cx="0" cy="0" rx="58" ry="13" fill="#17253f"/>
    <ellipse cx="0" cy="-1" rx="46" ry="9" fill="#efd8a0"/>
  </g>
</svg>
